# xmcd
#
# Track frame offsets:
#	150
#	10966
#	30891
#	44382
#	58132
#	71157
#	87970
#	98070
#	116370
#	132484
#	147559
#	162947
#	176172
#	191872
#	208728
#	226133
#	247532
#	264307
#	284782
#	304107
#
# Disc length: 4324 seconds
#
# Revision: 0
# Processed by: cddbd v1.5.2PL0 Copyright (c) Steve Scherf et al.
# Submitted via: EZCDAudioConverter 7.0.6.1
#
DISCID=2110e214
DTITLE=COLEMINE SINGLES 20/45 RPM
DYEAR=1900
DGENRE=
TTITLE0=Jungle Fire - Comencemos (Let's Start)
TTITLE1=The Droptones - Don't Get Caught
TTITLE2=Rugged Nuggets - Yo Todo Tu Yo
TTITLE3=Ikebe Shakedown - Hard Steppin'
TTITLE4=Jive Turkeys - The Reggie
TTITLE5=Dojo Cuts - You Make Lovin' Real Easy
TTITLE6=Los Sospechos - Jano's Revenge
TTITLE7=Monophonics - Like Yesterday
TTITLE8=On The Spot Trio - Suction
TTITLE9=Il Carbonaro - High Noon
TTITLE10=Alan Evans Trio - Authoritay
TTITLE11=Tee See Connection - Black Mamba
TTITLE12=Fat Night - Things You Do
TTITLE13=Grease Traps - Street Sweeper
TTITLE14=In Motion Collective - Jesse's Jing
TTITLE15=Orgōne - Don't Stop
TTITLE16=Sure Fire Soul Ensemble - City Heights
TTITLE17=Leroi Conroy - Remember When
TTITLE18=Gene Washington and The Ironsides - Don't Throw Your Love Away
TTITLE19=Ephemerals - Things
EXTD=
EXTT0=
EXTT1=
EXTT2=
EXTT3=
EXTT4=
EXTT5=
EXTT6=
EXTT7=
EXTT8=
EXTT9=
EXTT10=
EXTT11=
EXTT12=
EXTT13=
EXTT14=
EXTT15=
EXTT16=
EXTT17=
EXTT18=
EXTT19=
PLAYORDER=
